<svg class="logo" xmlns="http://www.w3.org/2000/svg" width="441.667" height="152.156" viewBox="0 0 441.667 152.156"><path d="M191.725 76.777c.316-18.518 7.933-36.957 24.188-51.46 11.195-9.99 24.432-15.543 39.366-16.957 16.622-1.575 31.982 2.118 45.846 11.482 13.517 9.13 22.606 21.654 27.677 37.106 3.583 10.916 4.717 22.16 2.914 33.465-4.396 27.556-19.15 47.488-45.504 57.312-34.73 12.945-73.832-3.217-88.785-38.902-3.736-8.91-5.67-18.694-5.703-32.046zm70.532-26.328c-15.932.005-29.19 13.375-29.152 29.397.037 16.353 13.16 29.732 29.168 29.738 16.057.006 29.336-13.443 29.377-29.754.04-15.948-13.403-29.388-29.393-29.38zM50.026 151.995c-20.974-.858-36.315-10.48-45.385-29.555-3.507-7.377-5.018-15.268-4.56-23.446.54-9.605 4.7-17.72 10.743-24.975.757-.91.813-1.56.205-2.56-6.5-10.672-6.83-21.942-2.89-33.48 3.472-10.17 9.837-18.153 19.1-23.68 9.4-5.606 19.568-7.617 30.334-5.582 15.94 3.014 26.866 12.418 33.188 27.18 2.733 6.382 3.753 13.176 3.232 20.127-.41 5.463-2.412 10.423-5.31 15.007-.785 1.243-.675 1.99.216 3.065 4.625 5.586 8.088 11.81 9.834 18.893 1.226 4.97 1.284 10.026.57 15.065-1.78 12.562-7.205 23.27-16.76 31.694-7.49 6.602-16.204 10.685-26.205 11.823-1.074.122-2.14.333-3.218.407-1.027.07-2.062.015-3.094.015zm10.916-51.023c-.032-5.92-5.08-10.943-10.98-10.932-5.755.012-11.01 5.297-10.97 11.035.038 5.82 5.32 10.97 11.23 10.946 5.713-.02 10.753-5.216 10.72-11.048zM49.966 62.985c5.323.003 9.74-4.396 9.772-9.736.033-5.403-4.417-9.835-9.838-9.798-5.355.037-9.723 4.446-9.692 9.787.03 5.343 4.435 9.743 9.758 9.745zM386.072 0l36.936 18.596-16.54 33.527c1.86.753 3.586 1.37 5.244 2.138 14.51 6.72 23.933 17.888 27.996 33.257 4.428 16.746 1.373 32.3-9.375 45.954-8.15 10.356-18.96 16.514-32.152 18.085-17.92 2.134-32.88-3.78-44.437-17.493-9.535-11.313-13.012-24.668-11.583-39.394.787-8.108 4.193-15.21 7.758-22.323 11.813-23.578 23.557-47.19 35.33-70.79.247-.5.52-.985.824-1.555zm5.775 90.04c-5.766-.003-11.017 5.245-11.005 10.997.013 5.823 5.27 10.983 11.19 10.984 5.7.003 10.768-5.18 10.765-11.01-.004-5.897-5.066-10.968-10.95-10.97zM140.732 149.927V76.35l-.384-.206-5.44 6.46-34.333-24.978c1.607-1.93 3.072-3.712 4.56-5.474 11.574-13.72 23.147-27.442 34.758-41.133.434-.513 1.246-.996 1.883-1 13.055-.057 26.11-.042 39.164-.037.303 0 .605.05 1.026.088v139.856h-41.234z"/></svg>