<svg version="1.1" class="8106-logo" xmlns="http://www.w3.org/2000/svg" xmlns:xlink="http://www.w3.org/1999/xlink" x="0px" y="0px"
	 width="441.667px" height="152.156px" viewBox="0 0 441.667 152.156" enable-background="new 0 0 441.667 152.156"
	 xml:space="preserve">
<path d="M191.725,76.777c0.316-18.518,7.933-36.957,24.188-51.46c11.195-9.989,24.432-15.543,39.366-16.957
	c16.623-1.575,31.983,2.118,45.847,11.482c13.517,9.13,22.606,21.654,27.677,37.106c3.583,10.916,4.717,22.159,2.914,33.465
	c-4.396,27.556-19.149,47.488-45.504,57.312c-34.731,12.945-73.832-3.217-88.785-38.902
	C193.692,99.913,191.759,90.129,191.725,76.777z M262.257,50.449c-15.932,0.006-29.189,13.376-29.152,29.398
	c0.037,16.353,13.161,29.732,29.168,29.738c16.057,0.006,29.336-13.443,29.377-29.754C291.689,63.882,278.247,50.442,262.257,50.449
	z"/>
<path d="M50.026,151.995c-20.974-0.858-36.315-10.481-45.385-29.555c-3.508-7.377-5.019-15.268-4.561-23.446
	c0.539-9.605,4.7-17.719,10.743-24.975c0.757-0.91,0.813-1.56,0.205-2.559c-6.501-10.672-6.83-21.942-2.891-33.479
	C11.61,27.809,17.975,19.827,27.239,14.3c9.398-5.606,19.567-7.617,30.333-5.582c15.941,3.014,26.866,12.418,33.188,27.181
	c2.733,6.381,3.753,13.175,3.232,20.126c-0.41,5.463-2.412,10.423-5.309,15.007c-0.786,1.243-0.676,1.989,0.215,3.065
	c4.625,5.586,8.088,11.809,9.834,18.893c1.226,4.971,1.284,10.026,0.57,15.065c-1.78,12.562-7.205,23.271-16.759,31.694
	c-7.49,6.603-16.205,10.686-26.206,11.824c-1.074,0.122-2.141,0.333-3.218,0.407C52.093,152.051,51.058,151.995,50.026,151.995z
	 M60.942,100.972c-0.032-5.919-5.08-10.943-10.981-10.932c-5.754,0.012-11.008,5.297-10.97,11.035
	c0.039,5.821,5.322,10.971,11.232,10.946C55.935,111.999,60.975,106.804,60.942,100.972z M49.966,62.985
	c5.323,0.003,9.739-4.396,9.772-9.736c0.033-5.402-4.417-9.834-9.838-9.797c-5.355,0.037-9.723,4.446-9.692,9.787
	C40.237,58.583,44.643,62.983,49.966,62.985z"/>
<path d="M386.072,0c12.391,6.238,24.608,12.39,36.936,18.596c-5.553,11.254-11.011,22.318-16.541,33.527
	c1.86,0.753,3.587,1.37,5.245,2.138c14.51,6.72,23.933,17.887,27.996,33.256c4.428,16.746,1.373,32.299-9.375,45.954
	c-8.151,10.355-18.96,16.513-32.152,18.084c-17.92,2.134-32.881-3.78-44.438-17.493c-9.535-11.313-13.012-24.668-11.583-39.394
	c0.787-8.108,4.193-15.209,7.758-22.323c11.813-23.578,23.557-47.191,35.329-70.791C385.495,1.056,385.769,0.57,386.072,0z
	 M391.847,90.04c-5.766-0.003-11.017,5.245-11.005,10.997c0.013,5.823,5.269,10.983,11.189,10.984
	c5.701,0.002,10.769-5.182,10.766-11.011C402.793,95.113,397.731,90.042,391.847,90.04z"/>
<path d="M140.732,149.927c0-24.615,0-49.097,0-73.577c-0.128-0.068-0.256-0.138-0.384-0.206c-1.786,2.12-3.571,4.241-5.439,6.46
	c-11.474-8.347-22.829-16.607-34.334-24.978c1.607-1.931,3.072-3.712,4.559-5.474c11.575-13.721,23.148-27.442,34.759-41.133
	c0.434-0.512,1.246-0.995,1.883-0.998c13.055-0.058,26.109-0.043,39.164-0.038c0.303,0,0.605,0.051,1.026,0.088
	c0,46.622,0,93.178,0,139.855C168.299,149.927,154.655,149.927,140.732,149.927z"/>
</svg>
